<svg xmlns="http://www.w3.org/2000/svg" viewBox="0 0 512 512" aria-hidden="true" preserveAspectRatio="xMidYMid meet">
  <g transform="translate(0,512) scale(0.1,-0.1)" fill="#000" stroke="none">
    <path d="M2305 4779 c-193 -20 -459 -92 -653 -177 -93 -41 -222 -109 -222 -117 0 -7 89 -50 165 -80 206 -81 1098 -548 1397 -731 189 -116 243 -149 251 -152 34 -15 -222 698 -419 1165 -34 80 -43 92 -68 97 -41 9 -356 5 -451 -5z"/>
    <path d="M3100 4715 c0 -4 8 -20 17 -38 50 -96 234 -581 321 -847 82 -250 232 -816 262 -987 7 -40 16 -73 20 -73 7 0 137 241 220 410 73 147 122 256 220 480 39 91 85 195 101 231 16 36 29 70 29 75 0 15 -125 152 -205 225 -250 229 -511 385 -807 483 -128 43 -178 54 -178 41z"/>
    <path d="M1069 4222 c-260 -233 -470 -537 -592 -858 -34 -88 -77 -229 -77 -251 0 -7 42 7 93 29 317 138 751 302 1022 387 297 92 695 191 771 191 13 0 25 4 28 9 9 14 -409 237 -709 378 -186 87 -428 193 -440 193 -5 0 -49 -35 -96 -78z"/>
    <path d="M4437 3616 c-20 -47 -37 -87 -37 -90 0 -8 -121 -266 -210 -451 -63 -130 -292 -562 -372 -700 -112 -194 -160 -274 -244 -408 -52 -82 -94 -151 -94 -153 0 -10 34 -1 175 45 289 95 495 172 805 304 259 110 318 138 324 153 3 7 8 75 12 151 14 291 -42 620 -157 913 -42 109 -147 320 -159 320 -4 0 -23 -38 -43 -84z"/>
    <path d="M1445 3224 c-88 -30 -171 -59 -185 -64 -76 -25 -260 -95 -360 -135 -63 -26 -158 -64 -210 -85 -52 -21 -153 -65 -225 -98 l-130 -59 -8 -79 c-9 -88 -3 -284 13 -414 23 -185 94 -442 173 -627 40 -94 125 -253 135 -253 4 0 25 44 46 98 136 339 340 763 524 1087 103 182 277 473 344 574 66 99 72 111 56 110 -7 0 -85 -25 -173 -55z"/>
    <path d="M1815 1780 c-105 -8 -131 -13 -244 -47 -171 -51 -360 -159 -495 -283 -86 -79 -206 -219 -206 -240 0 -22 181 -197 294 -284 267 -208 530 -340 846 -426 494 -134 1017 -94 1505 115 390 168 742 459 976 807 91 135 122 209 117 277 -6 68 -30 91 -94 91 -69 0 -104 -21 -221 -127 -289 -265 -441 -355 -793 -469 -302 -98 -540 -112 -855 -49 -71 14 -185 29 -252 32 -68 3 -123 10 -123 14 0 11 72 47 129 65 25 8 96 19 156 26 94 9 130 9 235 -5 155 -21 245 -21 350 -1 176 33 273 116 253 215 -7 37 -65 89 -101 90 -15 1 -130 2 -257 3 -265 2 -293 7 -622 107 -271 82 -409 102 -598 89z"/>
  </g>
</svg>
