<svg version="1.0" xmlns="http://www.w3.org/2000/svg" viewBox="0 0 212 212" aria-hidden="true" preserveAspectRatio="xMidYMid meet">
  <g transform="translate(0,212) scale(0.1,-0.1)" fill="#000" stroke="none">
    <path d="M993 2073 c-35 -2 -63 -7 -63 -11 0 -4 28 -39 63 -77 154 -173 366 -448 492 -638 32 -48 62 -84 66 -80 26 29 68 643 45 663 -29 23 -163 82 -238 104 -110 32 -244 46 -365 39z"/>
    <path d="M765 2026 c-79 -25 -196 -82 -261 -127 -88 -61 -244 -213 -244 -239 0 -6 47 -10 114 -10 227 0 589 -40 770 -86 54 -13 101 -22 104 -20 13 13 -369 487 -403 500 -6 2 -42 -6 -80 -18z"/>
    <path d="M1670 1787 c0 -200 -36 -504 -90 -766 -16 -80 -28 -147 -25 -149 10 -10 254 185 428 343 50 45 77 77 77 91 0 51 -79 230 -141 320 -61 88 -213 244 -239 244 -6 0 -10 -36 -10 -83z"/>
    <path d="M187 1553 c-65 -106 -113 -259 -126 -404 -8 -97 -4 -228 8 -242 4 -4 47 30 97 75 190 176 354 305 582 456 79 52 140 98 135 102 -16 15 -443 49 -620 50 -50 0 -54 -2 -76 -37z"/>
    <path d="M574 781 c-125 -34 -256 -116 -331 -208 l-37 -45 18 -32 c25 -46 121 -155 194 -218 199 -172 468 -258 742 -236 337 27 663 248 819 553 45 88 50 114 23 138 -34 31 -74 21 -122 -29 -78 -80 -193 -166 -266 -200 -170 -79 -344 -108 -474 -79 -41 9 -102 21 -135 26 -118 21 -115 19 -75 37 39 17 123 19 278 7 86 -6 109 -5 147 9 52 20 75 48 75 92 0 57 -25 68 -168 75 -121 5 -135 8 -293 62 -202 68 -283 78 -395 48z"/>
  </g>
</svg>
